<?xml version="1.0" encoding="UTF-8" standalone="no"?>
<svg
   xmlns:dc="http://purl.org/dc/elements/1.1/"
   xmlns:cc="http://creativecommons.org/ns#"
   xmlns:rdf="http://www.w3.org/1999/02/22-rdf-syntax-ns#"
   xmlns:svg="http://www.w3.org/2000/svg"
   xmlns="http://www.w3.org/2000/svg"
   xmlns:sodipodi="http://sodipodi.sourceforge.net/DTD/sodipodi-0.dtd"
   xmlns:inkscape="http://www.inkscape.org/namespaces/inkscape"
   width="133.55431mm"
   height="89.999916mm"
   viewBox="0 0 133.55431 89.999915"
   version="1.1"
   id="svg8"
   inkscape:version="1.0.1 (3bc2e813f5, 2020-09-07)"
   sodipodi:docname="Logo.svg">
  <defs
     id="defs2" />
  <sodipodi:namedview
     id="base"
     pagecolor="#ffffff"
     bordercolor="#666666"
     borderopacity="1.0"
     inkscape:pageopacity="0.0"
     inkscape:pageshadow="2"
     inkscape:zoom="0.7"
     inkscape:cx="251.12853"
     inkscape:cy="107.68768"
     inkscape:document-units="mm"
     inkscape:current-layer="layer1"
     inkscape:document-rotation="0"
     showgrid="false"
     inkscape:snap-bbox="true"
     inkscape:bbox-paths="true"
     inkscape:snap-bbox-midpoints="true"
     inkscape:snap-bbox-edge-midpoints="true"
     inkscape:bbox-nodes="true"
     inkscape:snap-global="false"
     inkscape:window-width="1366"
     inkscape:window-height="728"
     inkscape:window-x="0"
     inkscape:window-y="0"
     inkscape:window-maximized="0"
     fit-margin-top="0"
     fit-margin-left="0"
     fit-margin-right="0"
     fit-margin-bottom="0" />
  <metadata
     id="metadata5">
    <rdf:RDF>
      <cc:Work
         rdf:about="">
        <dc:format>image/svg+xml</dc:format>
        <dc:type
           rdf:resource="http://purl.org/dc/dcmitype/StillImage" />
        <dc:title></dc:title>
      </cc:Work>
    </rdf:RDF>
  </metadata>
  <g
     inkscape:label="Calque 1"
     inkscape:groupmode="layer"
     id="layer1"
     transform="translate(-158.7293,-97.086483)">
    <path
       id="circle1002"
       style="mix-blend-mode:normal;fill:#000000;fill-opacity:1;stroke:#000000;stroke-width:11.3386;stroke-linecap:round;stroke-linejoin:round;stroke-miterlimit:4;stroke-dasharray:none;stroke-opacity:1;paint-order:markers stroke fill"
       d="M 168.19727,6.7753906 A 164.40945,164.40945 0 0 0 4.3476562,171.18359 164.40945,164.40945 0 0 0 168.75781,335.59375 a 164.40945,164.40945 0 0 0 78.57031,-19.99219 115.92212,164.40945 0 0 0 55.40235,19.99219 115.92212,164.40945 0 0 0 68.49023,-31.76563 79.556636,164.40945 0 0 0 47.00391,31.76563 A 79.556636,164.40945 0 0 0 497.78125,171.18359 79.556636,164.40945 0 0 0 418.22461,6.7753906 79.556636,164.40945 0 0 0 371.2207,38.541016 115.92212,164.40945 0 0 0 302.73047,6.7753906 115.92212,164.40945 0 0 0 247.33008,26.765625 164.40945,164.40945 0 0 0 168.75781,6.7753906 a 164.40945,164.40945 0 0 0 -0.56054,0 z"
       transform="matrix(0.26458333,0,0,0.26458333,159.07898,96.793891)" />
    <circle
       style="mix-blend-mode:normal;fill:#000000;fill-opacity:1;stroke-width:3;stroke-linecap:round;stroke-linejoin:round;paint-order:markers stroke fill"
       id="circle867"
       cx="203.72923"
       cy="142.08641"
       r="43.5" />
    <path
       id="path869"
       style="mix-blend-mode:normal;fill:#ffffff;fill-opacity:1;stroke-width:2.99999;stroke-linecap:round;stroke-linejoin:round;paint-order:markers stroke fill"
       d="m 203.71903,122.43172 a 19.654776,19.654776 0 0 0 -19.64473,19.65452 19.654776,19.654776 0 0 0 19.65489,19.65487 v -39.30939 a 19.654776,19.654776 0 0 0 -0.0104,0 z" />
    <path
       id="path871"
       style="mix-blend-mode:normal;fill:#ffffff;fill-opacity:1;stroke-width:3;stroke-linecap:round;stroke-linejoin:round;paint-order:markers stroke fill"
       d="m 203.72865,99.375141 v 85.422699 a 42.711311,42.711311 0 0 0 42.7116,-42.71161 42.711311,42.711311 0 0 0 -42.616,-42.711089 42.711311,42.711311 0 0 0 -0.0956,0 z m 5.1e-4,23.056479 a 19.654776,19.654776 0 0 1 0.01,0 19.654776,19.654776 0 0 1 5.3e-4,0 19.654776,19.654776 0 0 1 19.64428,19.65461 19.654776,19.654776 0 0 1 -19.65463,19.65513 z" />
    <ellipse
       style="mix-blend-mode:normal;fill:#000000;fill-opacity:1;stroke-width:3;stroke-linecap:round;stroke-linejoin:round;paint-order:markers stroke fill"
       id="path833"
       cx="239.17645"
       cy="142.08641"
       rx="30.671062"
       ry="43.5" />
    <path
       id="path835"
       style="mix-blend-mode:normal;fill:#ffffff;fill-opacity:1;stroke-width:3;stroke-linecap:round;stroke-linejoin:round;paint-order:markers stroke fill"
       d="m 239.16633,114.1163 a 19.721309,27.970239 0 0 0 -19.71122,27.96986 19.721309,27.970239 0 0 0 19.72142,27.97039 V 114.1163 a 19.721309,27.970239 0 0 0 -0.0102,0 z" />
    <path
       id="path849"
       style="mix-blend-mode:normal;fill:#ffffff;fill-opacity:1;stroke-width:3;stroke-linecap:round;stroke-linejoin:round;paint-order:markers stroke fill"
       d="m 239.1761,99.375101 v 14.741219 a 19.721309,27.970239 0 0 1 0.0103,0 19.721309,27.970239 0 0 1 19.71146,27.96987 19.721309,27.970239 0 0 1 -19.72179,27.97038 v 14.74122 a 30.114973,42.711311 0 0 0 30.11547,-42.7116 30.114973,42.711311 0 0 0 -30.04778,-42.711089 30.114973,42.711311 0 0 0 -0.0677,0 z" />
    <ellipse
       style="mix-blend-mode:normal;fill:#000000;fill-opacity:1;stroke-width:3;stroke-linecap:round;stroke-linejoin:round;paint-order:markers stroke fill"
       id="circle875"
       cx="269.73434"
       cy="142.08641"
       rx="21.04936"
       ry="43.5" />
    <path
       id="path877"
       style="mix-blend-mode:normal;fill:#ffffff;fill-opacity:1;stroke-width:2.99999;stroke-linecap:round;stroke-linejoin:round;paint-order:markers stroke fill"
       d="m 269.72503,105.04486 a 17.924233,37.041704 0 0 0 -17.91506,37.04121 17.924233,37.041704 0 0 0 17.92433,37.04191 v -74.08312 a 17.924233,37.041704 0 0 0 -0.009,0 z" />
    <path
       id="path879"
       style="mix-blend-mode:normal;fill:#ffffff;fill-opacity:1;stroke-width:3;stroke-linecap:round;stroke-linejoin:round;paint-order:markers stroke fill"
       d="m 269.73392,99.375198 v 5.669422 a 17.924233,37.041703 0 0 1 0.009,0 17.924233,37.041703 0 0 1 17.9152,37.04167 17.924233,37.041703 0 0 1 -17.9245,37.04166 v 5.66994 a 20.667719,42.711311 0 0 0 20.66799,-42.7116 20.667719,42.711311 0 0 0 -20.62148,-42.711092 20.667719,42.711311 0 0 0 -0.0465,0 z" />
  </g>
</svg>
